<mxfile host="app.diagrams.net" modified="2023-03-28T08:55:57.868Z" agent="Mozilla/5.0 (Windows NT 10.0; Win64; x64) AppleWebKit/537.36 (KHTML, like Gecko) Chrome/111.0.0.0 Safari/537.36 Edg/111.0.1661.54" etag="rrlWl7Vk3x7qs1TeO8Xq" version="21.1.1" type="github">
  <diagram name="第 1 页" id="FHftKpjNM8iqiLnRL3kn">
    <mxGraphModel dx="513" dy="329" grid="1" gridSize="10" guides="0" tooltips="1" connect="0" arrows="0" fold="1" page="1" pageScale="1" pageWidth="1169" pageHeight="827" math="1" shadow="0">
      <root>
        <mxCell id="0" />
        <mxCell id="1" parent="0" />
        <mxCell id="ObcbELKSdhY1IeRoL00B-3" value="" style="shape=table;startSize=0;container=1;collapsible=0;childLayout=tableLayout;fontSize=15;aspect=fixed;strokeWidth=1;fillColor=#FFF2CC;" parent="1" vertex="1">
          <mxGeometry x="160" y="160" width="200" height="50" as="geometry" />
        </mxCell>
        <mxCell id="ObcbELKSdhY1IeRoL00B-19" style="shape=tableRow;horizontal=0;startSize=0;swimlaneHead=0;swimlaneBody=0;strokeColor=inherit;top=0;left=0;bottom=0;right=0;collapsible=0;dropTarget=0;fillColor=#FFF2CC;points=[[0,0.5],[1,0.5]];portConstraint=eastwest;fontSize=15;strokeWidth=1;" parent="ObcbELKSdhY1IeRoL00B-3" vertex="1">
          <mxGeometry width="200" height="50" as="geometry" />
        </mxCell>
        <mxCell id="ObcbELKSdhY1IeRoL00B-20" value="$$x_1^1$$" style="shape=partialRectangle;html=1;whiteSpace=wrap;connectable=0;strokeColor=inherit;overflow=hidden;fillColor=#FFF2CC;top=0;left=0;bottom=0;right=1;pointerEvents=1;fontSize=15;strokeWidth=1;" parent="ObcbELKSdhY1IeRoL00B-19" vertex="1">
          <mxGeometry width="49" height="50" as="geometry">
            <mxRectangle width="49" height="50" as="alternateBounds" />
          </mxGeometry>
        </mxCell>
        <mxCell id="ObcbELKSdhY1IeRoL00B-21" value="$$x_2^1$$" style="shape=partialRectangle;html=1;whiteSpace=wrap;connectable=0;strokeColor=inherit;overflow=hidden;fillColor=#FFF2CC;top=0;left=0;bottom=0;right=1;pointerEvents=1;fontSize=15;strokeWidth=1;" parent="ObcbELKSdhY1IeRoL00B-19" vertex="1">
          <mxGeometry x="49" width="53" height="50" as="geometry">
            <mxRectangle width="53" height="50" as="alternateBounds" />
          </mxGeometry>
        </mxCell>
        <mxCell id="ObcbELKSdhY1IeRoL00B-22" value="$$\cdots$$" style="shape=partialRectangle;html=1;whiteSpace=wrap;connectable=0;strokeColor=inherit;overflow=hidden;fillColor=#FFF2CC;top=0;left=0;bottom=0;right=1;pointerEvents=1;fontSize=15;strokeWidth=1;" parent="ObcbELKSdhY1IeRoL00B-19" vertex="1">
          <mxGeometry x="102" width="49" height="50" as="geometry">
            <mxRectangle width="49" height="50" as="alternateBounds" />
          </mxGeometry>
        </mxCell>
        <mxCell id="ObcbELKSdhY1IeRoL00B-23" value="$$x_k^1$$" style="shape=partialRectangle;html=1;whiteSpace=wrap;connectable=0;strokeColor=inherit;overflow=hidden;fillColor=#FFF2CC;top=0;left=0;bottom=0;right=0;pointerEvents=1;fontSize=15;strokeWidth=1;" parent="ObcbELKSdhY1IeRoL00B-19" vertex="1">
          <mxGeometry x="151" width="49" height="50" as="geometry">
            <mxRectangle width="49" height="50" as="alternateBounds" />
          </mxGeometry>
        </mxCell>
        <mxCell id="ObcbELKSdhY1IeRoL00B-29" value="" style="shape=table;startSize=0;container=1;collapsible=0;childLayout=tableLayout;fontSize=15;aspect=fixed;strokeWidth=1;fillColor=#FFF2CC;" parent="1" vertex="1">
          <mxGeometry x="160" y="220" width="200" height="50" as="geometry" />
        </mxCell>
        <mxCell id="ObcbELKSdhY1IeRoL00B-30" style="shape=tableRow;horizontal=0;startSize=0;swimlaneHead=0;swimlaneBody=0;strokeColor=inherit;top=0;left=0;bottom=0;right=0;collapsible=0;dropTarget=0;fillColor=#FFF2CC;points=[[0,0.5],[1,0.5]];portConstraint=eastwest;fontSize=15;strokeWidth=1;" parent="ObcbELKSdhY1IeRoL00B-29" vertex="1">
          <mxGeometry width="200" height="50" as="geometry" />
        </mxCell>
        <mxCell id="ObcbELKSdhY1IeRoL00B-31" value="$$x_1^2$$" style="shape=partialRectangle;html=1;whiteSpace=wrap;connectable=0;strokeColor=inherit;overflow=hidden;fillColor=#FFF2CC;top=0;left=0;bottom=0;right=1;pointerEvents=1;fontSize=15;strokeWidth=1;" parent="ObcbELKSdhY1IeRoL00B-30" vertex="1">
          <mxGeometry width="49" height="50" as="geometry">
            <mxRectangle width="49" height="50" as="alternateBounds" />
          </mxGeometry>
        </mxCell>
        <mxCell id="ObcbELKSdhY1IeRoL00B-32" value="$$x_2^2$$" style="shape=partialRectangle;html=1;whiteSpace=wrap;connectable=0;strokeColor=inherit;overflow=hidden;fillColor=#FFF2CC;top=0;left=0;bottom=0;right=1;pointerEvents=1;fontSize=15;strokeWidth=1;" parent="ObcbELKSdhY1IeRoL00B-30" vertex="1">
          <mxGeometry x="49" width="53" height="50" as="geometry">
            <mxRectangle width="53" height="50" as="alternateBounds" />
          </mxGeometry>
        </mxCell>
        <mxCell id="ObcbELKSdhY1IeRoL00B-33" value="$$\cdots$$" style="shape=partialRectangle;html=1;whiteSpace=wrap;connectable=0;strokeColor=inherit;overflow=hidden;fillColor=#FFF2CC;top=0;left=0;bottom=0;right=1;pointerEvents=1;fontSize=15;strokeWidth=1;" parent="ObcbELKSdhY1IeRoL00B-30" vertex="1">
          <mxGeometry x="102" width="49" height="50" as="geometry">
            <mxRectangle width="49" height="50" as="alternateBounds" />
          </mxGeometry>
        </mxCell>
        <mxCell id="ObcbELKSdhY1IeRoL00B-34" value="$$x_k^2$$" style="shape=partialRectangle;html=1;whiteSpace=wrap;connectable=0;strokeColor=inherit;overflow=hidden;fillColor=#FFF2CC;top=0;left=0;bottom=0;right=0;pointerEvents=1;fontSize=15;strokeWidth=1;" parent="ObcbELKSdhY1IeRoL00B-30" vertex="1">
          <mxGeometry x="151" width="49" height="50" as="geometry">
            <mxRectangle width="49" height="50" as="alternateBounds" />
          </mxGeometry>
        </mxCell>
        <mxCell id="ObcbELKSdhY1IeRoL00B-35" value="" style="shape=table;startSize=0;container=1;collapsible=0;childLayout=tableLayout;fontSize=15;aspect=fixed;strokeWidth=1;fillColor=#FFF2CC;" parent="1" vertex="1">
          <mxGeometry x="160" y="300" width="200" height="50" as="geometry" />
        </mxCell>
        <mxCell id="ObcbELKSdhY1IeRoL00B-36" style="shape=tableRow;horizontal=0;startSize=0;swimlaneHead=0;swimlaneBody=0;strokeColor=inherit;top=0;left=0;bottom=0;right=0;collapsible=0;dropTarget=0;fillColor=#FFF2CC;points=[[0,0.5],[1,0.5]];portConstraint=eastwest;fontSize=15;strokeWidth=1;" parent="ObcbELKSdhY1IeRoL00B-35" vertex="1">
          <mxGeometry width="200" height="50" as="geometry" />
        </mxCell>
        <mxCell id="ObcbELKSdhY1IeRoL00B-37" value="$$x_1^n$$" style="shape=partialRectangle;html=1;whiteSpace=wrap;connectable=0;strokeColor=inherit;overflow=hidden;fillColor=#FFF2CC;top=0;left=0;bottom=0;right=1;pointerEvents=1;fontSize=15;strokeWidth=1;" parent="ObcbELKSdhY1IeRoL00B-36" vertex="1">
          <mxGeometry width="49" height="50" as="geometry">
            <mxRectangle width="49" height="50" as="alternateBounds" />
          </mxGeometry>
        </mxCell>
        <mxCell id="ObcbELKSdhY1IeRoL00B-38" value="$$x_2^n$$" style="shape=partialRectangle;html=1;whiteSpace=wrap;connectable=0;strokeColor=inherit;overflow=hidden;fillColor=#FFF2CC;top=0;left=0;bottom=0;right=1;pointerEvents=1;fontSize=15;strokeWidth=1;" parent="ObcbELKSdhY1IeRoL00B-36" vertex="1">
          <mxGeometry x="49" width="53" height="50" as="geometry">
            <mxRectangle width="53" height="50" as="alternateBounds" />
          </mxGeometry>
        </mxCell>
        <mxCell id="ObcbELKSdhY1IeRoL00B-39" value="$$\cdots$$" style="shape=partialRectangle;html=1;whiteSpace=wrap;connectable=0;strokeColor=inherit;overflow=hidden;fillColor=#FFF2CC;top=0;left=0;bottom=0;right=1;pointerEvents=1;fontSize=15;strokeWidth=1;" parent="ObcbELKSdhY1IeRoL00B-36" vertex="1">
          <mxGeometry x="102" width="48" height="50" as="geometry">
            <mxRectangle width="48" height="50" as="alternateBounds" />
          </mxGeometry>
        </mxCell>
        <mxCell id="ObcbELKSdhY1IeRoL00B-40" value="$$x_k^n$$" style="shape=partialRectangle;html=1;whiteSpace=wrap;connectable=0;strokeColor=inherit;overflow=hidden;fillColor=#FFF2CC;top=0;left=0;bottom=0;right=0;pointerEvents=1;fontSize=15;strokeWidth=1;" parent="ObcbELKSdhY1IeRoL00B-36" vertex="1">
          <mxGeometry x="150" width="50" height="50" as="geometry">
            <mxRectangle width="50" height="50" as="alternateBounds" />
          </mxGeometry>
        </mxCell>
        <mxCell id="ObcbELKSdhY1IeRoL00B-41" value="$$\vdots$$" style="text;html=1;align=center;verticalAlign=middle;resizable=0;points=[];autosize=1;strokeColor=none;fillColor=none;strokeWidth=1;fontSize=15;" parent="1" vertex="1">
          <mxGeometry x="190" y="270" width="100" height="30" as="geometry" />
        </mxCell>
        <mxCell id="ObcbELKSdhY1IeRoL00B-48" value="" style="shape=curlyBracket;whiteSpace=wrap;html=1;rounded=1;labelPosition=left;verticalLabelPosition=middle;align=right;verticalAlign=middle;size=0.5;" parent="1" vertex="1">
          <mxGeometry x="130" y="160" width="20" height="190" as="geometry" />
        </mxCell>
        <mxCell id="ObcbELKSdhY1IeRoL00B-49" value="n个k维向量" style="text;html=1;align=center;verticalAlign=middle;resizable=0;points=[];autosize=1;strokeColor=none;fillColor=none;" parent="1" vertex="1">
          <mxGeometry x="50" y="240" width="80" height="30" as="geometry" />
        </mxCell>
        <mxCell id="ObcbELKSdhY1IeRoL00B-92" value="$$\cdots $$" style="text;align=center;verticalAlign=middle;resizable=0;points=[];autosize=1;strokeColor=none;fillColor=none;strokeWidth=1;swimlaneLine=1;labelBorderColor=none;html=1;labelBackgroundColor=none;noLabel=0;connectable=0;allowArrows=0;labelPadding=0;strokeOpacity=100;fontSize=15;" parent="1" vertex="1">
          <mxGeometry x="600" y="210" width="100" height="30" as="geometry" />
        </mxCell>
        <mxCell id="ObcbELKSdhY1IeRoL00B-94" value="" style="shape=curlyBracket;whiteSpace=wrap;html=1;rounded=1;labelPosition=left;verticalLabelPosition=middle;align=right;verticalAlign=middle;direction=north;strokeWidth=1;" parent="1" vertex="1">
          <mxGeometry x="520" y="360" width="200" height="20" as="geometry" />
        </mxCell>
        <mxCell id="ObcbELKSdhY1IeRoL00B-95" value="k个n维向量" style="text;html=1;align=center;verticalAlign=middle;resizable=0;points=[];autosize=1;strokeColor=none;fillColor=none;" parent="1" vertex="1">
          <mxGeometry x="575" y="380" width="80" height="30" as="geometry" />
        </mxCell>
        <mxCell id="ObcbELKSdhY1IeRoL00B-99" value="" style="html=1;shadow=0;dashed=0;align=center;verticalAlign=middle;shape=mxgraph.arrows2.arrow;dy=0.73;dx=14;notch=0;strokeWidth=1;" parent="1" vertex="1">
          <mxGeometry x="380" y="230" width="120" height="27.5" as="geometry" />
        </mxCell>
        <mxCell id="ObcbELKSdhY1IeRoL00B-101" value="" style="shape=table;startSize=0;container=1;collapsible=0;childLayout=tableLayout;rowLines=1;fillColor=#D5E8D4;fontSize=15;noLabel=0;" parent="1" vertex="1">
          <mxGeometry x="520" y="150" width="50" height="200" as="geometry" />
        </mxCell>
        <mxCell id="ObcbELKSdhY1IeRoL00B-102" value="" style="shape=tableRow;horizontal=0;startSize=0;swimlaneHead=0;swimlaneBody=0;strokeColor=inherit;top=0;left=0;bottom=0;right=0;collapsible=0;dropTarget=0;fillColor=#D5E8D4;points=[[0,0.5],[1,0.5]];portConstraint=eastwest;fontSize=15;" parent="ObcbELKSdhY1IeRoL00B-101" vertex="1">
          <mxGeometry width="50" height="50" as="geometry" />
        </mxCell>
        <mxCell id="ObcbELKSdhY1IeRoL00B-103" value="$$x_1^1$$" style="shape=partialRectangle;html=1;whiteSpace=wrap;connectable=0;strokeColor=inherit;overflow=hidden;fillColor=#D5E8D4;top=0;left=0;bottom=1;right=0;pointerEvents=1;noLabel=0;fontSize=15;" parent="ObcbELKSdhY1IeRoL00B-102" vertex="1">
          <mxGeometry width="50" height="50" as="geometry">
            <mxRectangle width="50" height="50" as="alternateBounds" />
          </mxGeometry>
        </mxCell>
        <mxCell id="ObcbELKSdhY1IeRoL00B-104" value="" style="shape=tableRow;horizontal=0;startSize=0;swimlaneHead=0;swimlaneBody=0;strokeColor=inherit;top=0;left=0;bottom=0;right=0;collapsible=0;dropTarget=0;fillColor=#D5E8D4;points=[[0,0.5],[1,0.5]];portConstraint=eastwest;fontSize=15;" parent="ObcbELKSdhY1IeRoL00B-101" vertex="1">
          <mxGeometry y="50" width="50" height="50" as="geometry" />
        </mxCell>
        <mxCell id="ObcbELKSdhY1IeRoL00B-105" value="$$x_1^2$$" style="shape=partialRectangle;html=1;whiteSpace=wrap;connectable=0;strokeColor=inherit;overflow=hidden;fillColor=#D5E8D4;top=0;left=0;bottom=1;right=0;pointerEvents=1;fontSize=15;" parent="ObcbELKSdhY1IeRoL00B-104" vertex="1">
          <mxGeometry width="50" height="50" as="geometry">
            <mxRectangle width="50" height="50" as="alternateBounds" />
          </mxGeometry>
        </mxCell>
        <mxCell id="ObcbELKSdhY1IeRoL00B-106" value="" style="shape=tableRow;horizontal=0;startSize=0;swimlaneHead=0;swimlaneBody=0;strokeColor=inherit;top=0;left=0;bottom=0;right=0;collapsible=0;dropTarget=0;fillColor=#D5E8D4;points=[[0,0.5],[1,0.5]];portConstraint=eastwest;fontSize=15;" parent="ObcbELKSdhY1IeRoL00B-101" vertex="1">
          <mxGeometry y="100" width="50" height="50" as="geometry" />
        </mxCell>
        <mxCell id="ObcbELKSdhY1IeRoL00B-107" value="$$\vdots$$" style="shape=partialRectangle;html=1;whiteSpace=wrap;connectable=0;strokeColor=inherit;overflow=hidden;fillColor=#D5E8D4;top=0;left=0;bottom=1;right=0;pointerEvents=1;fontSize=15;" parent="ObcbELKSdhY1IeRoL00B-106" vertex="1">
          <mxGeometry width="50" height="50" as="geometry">
            <mxRectangle width="50" height="50" as="alternateBounds" />
          </mxGeometry>
        </mxCell>
        <mxCell id="ObcbELKSdhY1IeRoL00B-108" value="" style="shape=tableRow;horizontal=0;startSize=0;swimlaneHead=0;swimlaneBody=0;strokeColor=inherit;top=0;left=0;bottom=0;right=0;collapsible=0;dropTarget=0;fillColor=#D5E8D4;points=[[0,0.5],[1,0.5]];portConstraint=eastwest;fontSize=15;" parent="ObcbELKSdhY1IeRoL00B-101" vertex="1">
          <mxGeometry y="150" width="50" height="50" as="geometry" />
        </mxCell>
        <mxCell id="ObcbELKSdhY1IeRoL00B-109" value="$$x_2^n$$" style="shape=partialRectangle;html=1;whiteSpace=wrap;connectable=0;strokeColor=inherit;overflow=hidden;fillColor=#D5E8D4;top=0;left=0;bottom=0;right=0;pointerEvents=1;fontSize=15;" parent="ObcbELKSdhY1IeRoL00B-108" vertex="1">
          <mxGeometry width="50" height="50" as="geometry">
            <mxRectangle width="50" height="50" as="alternateBounds" />
          </mxGeometry>
        </mxCell>
        <mxCell id="ObcbELKSdhY1IeRoL00B-110" value="" style="shape=table;startSize=0;container=1;collapsible=0;childLayout=tableLayout;rowLines=0;fillColor=#D5E8D4;fontSize=15;" parent="1" vertex="1">
          <mxGeometry x="580" y="150" width="50" height="200" as="geometry" />
        </mxCell>
        <mxCell id="ObcbELKSdhY1IeRoL00B-111" value="" style="shape=tableRow;horizontal=0;startSize=0;swimlaneHead=0;swimlaneBody=0;strokeColor=inherit;top=0;left=0;bottom=0;right=0;collapsible=0;dropTarget=0;fillColor=#D5E8D4;points=[[0,0.5],[1,0.5]];portConstraint=eastwest;fontSize=15;" parent="ObcbELKSdhY1IeRoL00B-110" vertex="1">
          <mxGeometry width="50" height="50" as="geometry" />
        </mxCell>
        <mxCell id="ObcbELKSdhY1IeRoL00B-112" value="$$x_2^1$$" style="shape=partialRectangle;html=1;whiteSpace=wrap;connectable=0;strokeColor=inherit;overflow=hidden;fillColor=#D5E8D4;top=0;left=0;bottom=1;right=0;pointerEvents=1;noLabel=0;fontSize=15;" parent="ObcbELKSdhY1IeRoL00B-111" vertex="1">
          <mxGeometry width="50" height="50" as="geometry">
            <mxRectangle width="50" height="50" as="alternateBounds" />
          </mxGeometry>
        </mxCell>
        <mxCell id="ObcbELKSdhY1IeRoL00B-113" value="" style="shape=tableRow;horizontal=0;startSize=0;swimlaneHead=0;swimlaneBody=0;strokeColor=inherit;top=0;left=0;bottom=0;right=0;collapsible=0;dropTarget=0;fillColor=#D5E8D4;points=[[0,0.5],[1,0.5]];portConstraint=eastwest;fontSize=15;" parent="ObcbELKSdhY1IeRoL00B-110" vertex="1">
          <mxGeometry y="50" width="50" height="50" as="geometry" />
        </mxCell>
        <mxCell id="ObcbELKSdhY1IeRoL00B-114" value="$$x_2^2$$" style="shape=partialRectangle;html=1;whiteSpace=wrap;connectable=0;strokeColor=inherit;overflow=hidden;fillColor=#D5E8D4;top=0;left=0;bottom=1;right=0;pointerEvents=1;fontSize=15;" parent="ObcbELKSdhY1IeRoL00B-113" vertex="1">
          <mxGeometry width="50" height="50" as="geometry">
            <mxRectangle width="50" height="50" as="alternateBounds" />
          </mxGeometry>
        </mxCell>
        <mxCell id="ObcbELKSdhY1IeRoL00B-115" value="" style="shape=tableRow;horizontal=0;startSize=0;swimlaneHead=0;swimlaneBody=0;strokeColor=inherit;top=0;left=0;bottom=0;right=0;collapsible=0;dropTarget=0;fillColor=#D5E8D4;points=[[0,0.5],[1,0.5]];portConstraint=eastwest;fontSize=15;" parent="ObcbELKSdhY1IeRoL00B-110" vertex="1">
          <mxGeometry y="100" width="50" height="50" as="geometry" />
        </mxCell>
        <mxCell id="ObcbELKSdhY1IeRoL00B-116" value="$$\vdots$$" style="shape=partialRectangle;html=1;whiteSpace=wrap;connectable=0;strokeColor=inherit;overflow=hidden;fillColor=#D5E8D4;top=0;left=0;bottom=1;right=0;pointerEvents=1;fontSize=15;" parent="ObcbELKSdhY1IeRoL00B-115" vertex="1">
          <mxGeometry width="50" height="50" as="geometry">
            <mxRectangle width="50" height="50" as="alternateBounds" />
          </mxGeometry>
        </mxCell>
        <mxCell id="ObcbELKSdhY1IeRoL00B-117" value="" style="shape=tableRow;horizontal=0;startSize=0;swimlaneHead=0;swimlaneBody=0;strokeColor=inherit;top=0;left=0;bottom=0;right=0;collapsible=0;dropTarget=0;fillColor=#D5E8D4;points=[[0,0.5],[1,0.5]];portConstraint=eastwest;fontSize=15;" parent="ObcbELKSdhY1IeRoL00B-110" vertex="1">
          <mxGeometry y="150" width="50" height="50" as="geometry" />
        </mxCell>
        <mxCell id="ObcbELKSdhY1IeRoL00B-118" value="$$x_2^n$$" style="shape=partialRectangle;html=1;whiteSpace=wrap;connectable=0;strokeColor=inherit;overflow=hidden;fillColor=#D5E8D4;top=0;left=0;bottom=0;right=0;pointerEvents=1;fontSize=15;" parent="ObcbELKSdhY1IeRoL00B-117" vertex="1">
          <mxGeometry width="50" height="50" as="geometry">
            <mxRectangle width="50" height="50" as="alternateBounds" />
          </mxGeometry>
        </mxCell>
        <mxCell id="ObcbELKSdhY1IeRoL00B-119" value="" style="shape=table;startSize=0;container=1;collapsible=0;childLayout=tableLayout;rowLines=0;fillColor=#D5E8D4;fontSize=15;" parent="1" vertex="1">
          <mxGeometry x="670" y="150" width="50" height="200" as="geometry" />
        </mxCell>
        <mxCell id="ObcbELKSdhY1IeRoL00B-120" value="" style="shape=tableRow;horizontal=0;startSize=0;swimlaneHead=0;swimlaneBody=0;strokeColor=inherit;top=0;left=0;bottom=0;right=0;collapsible=0;dropTarget=0;fillColor=#D5E8D4;points=[[0,0.5],[1,0.5]];portConstraint=eastwest;fontSize=15;" parent="ObcbELKSdhY1IeRoL00B-119" vertex="1">
          <mxGeometry width="50" height="50" as="geometry" />
        </mxCell>
        <mxCell id="ObcbELKSdhY1IeRoL00B-121" value="$$x_k^1$$" style="shape=partialRectangle;html=1;whiteSpace=wrap;connectable=0;strokeColor=inherit;overflow=hidden;fillColor=#D5E8D4;top=0;left=0;bottom=1;right=0;pointerEvents=1;noLabel=0;fontSize=15;" parent="ObcbELKSdhY1IeRoL00B-120" vertex="1">
          <mxGeometry width="50" height="50" as="geometry">
            <mxRectangle width="50" height="50" as="alternateBounds" />
          </mxGeometry>
        </mxCell>
        <mxCell id="ObcbELKSdhY1IeRoL00B-122" value="" style="shape=tableRow;horizontal=0;startSize=0;swimlaneHead=0;swimlaneBody=0;strokeColor=inherit;top=0;left=0;bottom=0;right=0;collapsible=0;dropTarget=0;fillColor=#D5E8D4;points=[[0,0.5],[1,0.5]];portConstraint=eastwest;fontSize=15;" parent="ObcbELKSdhY1IeRoL00B-119" vertex="1">
          <mxGeometry y="50" width="50" height="50" as="geometry" />
        </mxCell>
        <mxCell id="ObcbELKSdhY1IeRoL00B-123" value="$$x_k^2$$" style="shape=partialRectangle;html=1;whiteSpace=wrap;connectable=0;strokeColor=inherit;overflow=hidden;fillColor=#D5E8D4;top=0;left=0;bottom=1;right=0;pointerEvents=1;fontSize=15;" parent="ObcbELKSdhY1IeRoL00B-122" vertex="1">
          <mxGeometry width="50" height="50" as="geometry">
            <mxRectangle width="50" height="50" as="alternateBounds" />
          </mxGeometry>
        </mxCell>
        <mxCell id="ObcbELKSdhY1IeRoL00B-124" value="" style="shape=tableRow;horizontal=0;startSize=0;swimlaneHead=0;swimlaneBody=0;strokeColor=inherit;top=0;left=0;bottom=0;right=0;collapsible=0;dropTarget=0;fillColor=#D5E8D4;points=[[0,0.5],[1,0.5]];portConstraint=eastwest;fontSize=15;" parent="ObcbELKSdhY1IeRoL00B-119" vertex="1">
          <mxGeometry y="100" width="50" height="50" as="geometry" />
        </mxCell>
        <mxCell id="ObcbELKSdhY1IeRoL00B-125" value="$$\vdots$$" style="shape=partialRectangle;html=1;whiteSpace=wrap;connectable=0;strokeColor=inherit;overflow=hidden;fillColor=#D5E8D4;top=0;left=0;bottom=1;right=0;pointerEvents=1;fontSize=15;" parent="ObcbELKSdhY1IeRoL00B-124" vertex="1">
          <mxGeometry width="50" height="50" as="geometry">
            <mxRectangle width="50" height="50" as="alternateBounds" />
          </mxGeometry>
        </mxCell>
        <mxCell id="ObcbELKSdhY1IeRoL00B-126" value="" style="shape=tableRow;horizontal=0;startSize=0;swimlaneHead=0;swimlaneBody=0;strokeColor=inherit;top=0;left=0;bottom=0;right=0;collapsible=0;dropTarget=0;fillColor=#D5E8D4;points=[[0,0.5],[1,0.5]];portConstraint=eastwest;fontSize=15;" parent="ObcbELKSdhY1IeRoL00B-119" vertex="1">
          <mxGeometry y="150" width="50" height="50" as="geometry" />
        </mxCell>
        <mxCell id="ObcbELKSdhY1IeRoL00B-127" value="$$x_k^n$$" style="shape=partialRectangle;html=1;whiteSpace=wrap;connectable=0;strokeColor=inherit;overflow=hidden;fillColor=#D5E8D4;top=0;left=0;bottom=0;right=0;pointerEvents=1;fontSize=15;" parent="ObcbELKSdhY1IeRoL00B-126" vertex="1">
          <mxGeometry width="50" height="50" as="geometry">
            <mxRectangle width="50" height="50" as="alternateBounds" />
          </mxGeometry>
        </mxCell>
      </root>
    </mxGraphModel>
  </diagram>
</mxfile>
